<svg height="512" viewBox="0 0 510.748 510.748" width="512" xmlns="http://www.w3.org/2000/svg"><path d="M448.914 206.73l-27.603-30.529c5.365-9.065 7.28-19.631 5.372-30.096-2.098-11.507-8.552-21.509-18.172-28.163l-39.826-27.544c.251-6.43-.931-12.888-3.547-18.974-4.62-10.746-13.147-19.05-24.014-23.383l-88.073-35.116c-10.675-4.256-22.306-4.141-32.75.146C212.355 5.009 201.318 0 189.13 0H94.315C70.168 0 50.523 19.645 50.523 43.792v375.757c0 50.288 40.912 91.199 91.199 91.199 22.885 0 43.826-8.475 59.855-22.448.23-.164.455-.338.67-.531l170.744-153.661a7.502 7.502 0 00.558-10.592 7.5 7.5 0 00-10.592-.558l-7.034 6.331-22.855-25.277 35.882-51.883 32.621 36.078-14.842 13.358a7.502 7.502 0 005.019 13.075 7.475 7.475 0 005.016-1.925l49.037-44.132c8.677-7.845 13.778-18.6 14.366-30.282s-3.408-22.895-11.253-31.571zm-36.988-57.935c1.379 7.565-.271 15.216-4.646 21.541l-20.365 29.447-46.364-32.064 24.546-61.563 34.881 24.124c6.326 4.374 10.569 10.949 11.948 18.515zm-71.287 117.9l-31.002-21.441 25.214-63.239 43.531 30.105zm-46.276 66.912l-15.641-10.817 25.215-63.24 28.169 19.482zm11.544-119.498l-21.736-8.667a7.501 7.501 0 00-5.555 13.934l21.735 8.666-25.764 64.618-41.665-16.613v-74.89l15.874 6.329a7.484 7.484 0 002.775.535 7.501 7.501 0 002.781-14.469l-21.43-8.544v-74.89l98.749 39.373zM217.922 167.3h-84.956a7.5 7.5 0 000 15h84.956v69.565H65.523V182.3h35.48a7.5 7.5 0 000-15h-35.48V97.735h152.398V167.3zM65.523 266.865h152.398v69.565H65.523zm167.399 25.33l36.11 14.398-36.11 90.566zm46.735 89.047l8.317 9.198-38.873 34.983zm-32.411 20.494l25.777-64.651 12.809 8.858zm.25-374.877l88.073 35.116c7.144 2.848 12.75 8.308 15.787 15.373 2.089 4.857 2.79 10.074 2.099 15.181-.012.059-.018.119-.029.178-.32 2.261-.91 4.5-1.778 6.675l-14.423 36.175-104.303-41.588V43.792a43.528 43.528 0 00-3.844-17.908c6.018-1.701 12.447-1.406 18.418.975zM94.315 15h94.815c15.875 0 28.792 12.916 28.792 28.792v38.944H65.523V43.792C65.523 27.916 78.439 15 94.315 15zM65.523 419.549V351.43h152.398v68.119c0 42.017-34.183 76.199-76.199 76.199s-76.199-34.183-76.199-76.199zm279.25-80.225l-45.649 41.081-10.703-11.837 35.882-51.883zm100.413-101.777c-.386 7.681-3.74 14.751-9.433 19.898l-23.032 20.728-35.007-38.717 34.916-50.487 25.156 27.821c5.159 5.705 7.787 13.076 7.4 20.757z"/><path d="M140.023 383.857c-19.832 0-35.966 16.134-35.966 35.966s16.134 35.966 35.966 35.966 35.966-16.134 35.966-35.966-16.134-35.966-35.966-35.966zm0 56.933c-11.561 0-20.966-9.405-20.966-20.966s9.405-20.966 20.966-20.966 20.966 9.405 20.966 20.966-9.405 20.966-20.966 20.966z"/></svg>