<svg width="50" height="50" fill="none" xmlns="http://www.w3.org/2000/svg"><path d="M25 0C11.192 0 0 11.192 0 25s11.192 25 25 25c13.806 0 25-11.194 25-25C50 11.192 38.806 0 25 0zm0 46.875C12.919 46.875 3.125 37.081 3.125 25S12.92 3.125 25 3.125 46.875 12.92 46.875 25 37.081 46.875 25 46.875z" fill="#fff"/><path d="M36.407 16.239L20.33 32.17l-6.689-6.556a1.587 1.587 0 00-2.23 0 1.55 1.55 0 000 2.21l7.81 7.654c.64.564 1.598.626 2.231 0l17.186-17.03c.616-.61.616-1.6 0-2.21a1.592 1.592 0 00-2.233 0z" fill="#fff"/></svg>