<svg width="50" height="50" fill="none" xmlns="http://www.w3.org/2000/svg"><g clip-path="url(#clip0)" fill="#000"><path d="M45.526 40.08l-2.018-.7a4.874 4.874 0 001.857-3.828v-1.479a4.887 4.887 0 00-4.882-4.882 4.887 4.887 0 00-4.882 4.882v1.48c0 1.55.727 2.932 1.857 3.827l-2.018.7a6.648 6.648 0 00-3.163 2.327h-5.452v-2.152a6.662 6.662 0 00-4.474-6.289l-2.019-.7a4.874 4.874 0 001.857-3.828v-1.48a4.887 4.887 0 00-4.881-4.88 4.887 4.887 0 00-4.882 4.88v1.48c0 1.55.727 2.933 1.857 3.827l-2.019.701a6.662 6.662 0 00-4.473 6.289v2.152H.74a.74.74 0 00-.74.74v6.114c0 .408.331.74.74.74h30.769a.765.765 0 00.098-.008.768.768 0 00.1.007H49.26a.74.74 0 00.74-.74v-2.89a6.662 6.662 0 00-4.474-6.289zm-8.445-6.007a3.406 3.406 0 013.402-3.402 3.406 3.406 0 013.402 3.402v1.48a3.406 3.406 0 01-3.402 3.402 3.406 3.406 0 01-3.402-3.403v-1.479zm-23.176-6.114a3.406 3.406 0 013.403-3.402 3.406 3.406 0 013.402 3.402v1.48a3.406 3.406 0 01-3.402 3.401 3.406 3.406 0 01-3.403-3.402v-1.48zm4.955 6.36l.718.25-2.27 3.94-2.27-3.94.718-.25h3.104zm-9.59 5.936a5.182 5.182 0 013.48-4.892l.865-.3 3.052 5.297a.74.74 0 001.281 0l3.053-5.297.865.3a5.181 5.181 0 013.479 4.892v2.152H9.27v-2.152zm-7.79 3.63h29.968a6.632 6.632 0 00-.481 2.484v2.152H1.479v-4.635zm47.04 4.636H32.447v-2.152a5.182 5.182 0 013.479-4.891l3.006-1.044h3.104l3.006 1.044a5.181 5.181 0 013.48 4.89v2.153z"/><path d="M45.316 5.325h-7.514a.74.74 0 000 1.48h7.514a3.209 3.209 0 013.205 3.205v10.256a3.209 3.209 0 01-3.205 3.206H35.158a.74.74 0 00-.74.74v3.145l-3.668-3.669a.74.74 0 00-.523-.216H24.21a3.21 3.21 0 01-3.205-3.206V10.01a3.209 3.209 0 013.205-3.205h10.133a.74.74 0 100-1.48h-3.87v-.64A4.69 4.69 0 0025.788 0H4.684A4.69 4.69 0 000 4.684V6.32a.74.74 0 101.48 0V4.684A3.209 3.209 0 014.683 1.48H25.79a3.209 3.209 0 013.205 3.205v.641h-4.783a4.69 4.69 0 00-4.684 4.685v8.136h-7.742a.74.74 0 00-.74.74v3.145l-3.668-3.669a.74.74 0 00-.523-.216h-2.17A3.209 3.209 0 011.48 14.94V9.759A.74.74 0 100 9.76v5.182a4.69 4.69 0 004.684 4.684h1.864l4.714 4.715a.738.738 0 00.806.16.74.74 0 00.457-.683v-4.192h7.002v.641a4.69 4.69 0 004.684 4.684h5.71l4.714 4.715a.74.74 0 001.262-.523V24.95h9.419A4.69 4.69 0 0050 20.266V10.01a4.69 4.69 0 00-4.684-4.685z"/></g><defs><clipPath id="clip0"><path fill="#fff" d="M0 0h50v50H0z"/></clipPath></defs></svg>