<svg width="50" height="50" fill="none" xmlns="http://www.w3.org/2000/svg"><g clip-path="url(#clip0)" fill="#000"><path d="M46.667 8.333H17.084l-1.917-6.34A2.82 2.82 0 0011.674.116L7.43 1.367a2.833 2.833 0 00-1.231.745L1.417 7.064c-.36.376-.607.844-.716 1.353-.488 2.25-1.834 10.406 1.358 20.958C5.25 39.927 10.892 46.022 12.55 47.638c.371.364.836.62 1.344.736l6.744 1.556a2.823 2.823 0 001.439-.043l2.348-.693 1.893-.558A2.784 2.784 0 0028 47.278a2.75 2.75 0 00.216-2.12l-1.056-3.491h19.507a3.333 3.333 0 003.334-3.334V11.667a3.333 3.333 0 00-3.334-3.334zM33.542 24.75l14.69-13.638c.065.177.1.365.102.555v26.666a1.66 1.66 0 01-.093.525L33.542 24.75zM46.667 10c.095.001.189.01.282.028L29.5 26.223a1.667 1.667 0 01-2.267 0l-12-11.109.884-.26a2.792 2.792 0 001.68-1.358 2.75 2.75 0 00.213-2.12L17.592 10h29.075zM13.112 34.36c-1.72-2.107-3-4.538-3.761-7.148a18.79 18.79 0 01-.425-10.18.149.149 0 01.103-.092l4.339-1.28 9.787 9.058-10.043 9.641zM26.53 46.484a1.133 1.133 0 01-.683.55l-1.105.326-2.03-6.715a.834.834 0 10-1.595.482l2.03 6.705-1.538.454a1.167 1.167 0 01-.595.018l-6.744-1.555a1.168 1.168 0 01-.553-.305c-1.584-1.546-6.99-7.382-10.062-17.552C.58 18.723 1.863 10.917 2.329 8.768c.045-.206.146-.396.292-.548l4.776-4.95c.138-.143.31-.248.5-.305l1.551-.457 2.03 6.714a.833.833 0 101.594-.481L11.05 2.037l1.095-.322a1.152 1.152 0 011.432.76l2.833 9.383c.087.28.058.585-.083.845a1.137 1.137 0 01-.683.55l-1.106.326-.328-1.083a.833.833 0 00-1.595.481l.325 1.074-4.382 1.291c-.6.176-1.069.648-1.24 1.25a20.482 20.482 0 00.438 11.098 20.68 20.68 0 005.79 9.517 1.81 1.81 0 001.721.375l4.393-1.295.327 1.083a.833.833 0 101.595-.482l-.324-1.074 1.094-.322a1.156 1.156 0 011.433.759l2.834 9.384a1.1 1.1 0 01-.086.85h-.004zM26.656 40l-1.276-4.226a2.82 2.82 0 00-3.5-1.876l-7.084 2.089a.167.167 0 01-.148-.027c-.117-.102-.25-.23-.404-.375l10.137-9.733 1.72 1.592a3.345 3.345 0 004.535 0l1.683-1.563L46.99 39.964a1.66 1.66 0 01-.324.036h-20.01z"/><path d="M21.667 13.333H35a.833.833 0 000-1.667H21.667a.833.833 0 000 1.667zm24.167 5.001a.833.833 0 00-.834.833v11.666a.833.833 0 001.667 0V19.168a.833.833 0 00-.833-.834z"/></g><defs><clipPath id="clip0"><path fill="#fff" d="M0 0h50v50H0z"/></clipPath></defs></svg>