<svg height="512" viewBox="0 0 74 74" width="512" xmlns="http://www.w3.org/2000/svg"><path d="M63.773 70a1 1 0 01-.869-.5l-7.226-12.679a1 1 0 01-.131-.5V13.44a5.824 5.824 0 015.818-5.818h4.817A5.824 5.824 0 0172 13.44v42.886a1 1 0 01-.131.5L64.642 69.5a1 1 0 01-.869.5zm-6.226-13.939l6.227 10.92L70 56.061V13.44a3.822 3.822 0 00-3.818-3.818h-4.817a3.822 3.822 0 00-3.818 3.818z"/><path d="M57.224 57.061l-1.356-1.469c.079-.074 7.995-7.229 15.812 0l-1.359 1.468c-6.446-5.96-12.829-.245-13.097.001zm-.677-38.223H71v2H56.547z"/><path d="M62.773 19.838h2v33.597h-2zm-32.12 33.854H20.189a1 1 0 01-1-1 15.582 15.582 0 00-5.335-11.608A17.444 17.444 0 1142.795 26.46a17.321 17.321 0 01-5.908 14.712 15.288 15.288 0 00-5.234 11.52 1 1 0 01-1 1zm-9.493-2h8.522a17.291 17.291 0 015.89-12.026 15.442 15.442 0 10-20.391-.078A17.644 17.644 0 0121.16 51.69z"/><path d="M28.668 59.553h-6.494a1.749 1.749 0 01-1.747-1.747v-5.114a1 1 0 011-1h7.989a1 1 0 011 1v5.114a1.749 1.749 0 01-1.748 1.747zm-6.242-2h5.989v-3.861h-5.988zM24.421 4.86h2v3.737h-2zM13.718 8.264l1.732-1 1.868 3.235-1.732 1zm-7.568 8.3l1-1.732 3.236 1.868-1 1.732zM3 25.534h3.737v2H3zm41.106 0h3.737v2h-3.737zm-3.653-8.839l3.236-1.869 1 1.732-3.236 1.869zm-6.927-6.192l1.868-3.236 1.732 1-1.868 3.236z"/><path d="M24.421 34.008h2v18.685h-2z"/><path d="M25.421 35.008a4.363 4.363 0 114.363-4.363 4.368 4.368 0 01-4.363 4.363zm0-6.726a2.363 2.363 0 102.363 2.363 2.366 2.366 0 00-2.363-2.363zM63.773 70H29.225a5.006 5.006 0 01-5-5v-6.447h2V65a3 3 0 003 3h34.548z"/></svg>