<svg width="50" height="50" fill="none" xmlns="http://www.w3.org/2000/svg"><path d="M43.675 6.626h-4.217V2.41A2.417 2.417 0 0037.048 0H6.326a2.417 2.417 0 00-2.41 2.41v38.554a2.417 2.417 0 002.41 2.41h4.217v4.216a2.416 2.416 0 002.41 2.41h20.481c1.325 0 3.2-.743 4.164-1.651l6.731-6.336c.966-.908 1.755-2.736 1.755-4.061l.001-28.916a2.417 2.417 0 00-2.41-2.41zm-33.133 2.41v32.53H6.325a.61.61 0 01-.602-.602V2.41a.61.61 0 01.602-.603H37.05a.61.61 0 01.602.603v4.217h-24.7a2.416 2.416 0 00-2.409 2.41zm32.548 31.66l-6.732 6.337c-.137.13-.317.256-.515.377v-5.543a1.5 1.5 0 01.442-1.063c.278-.275.65-.443 1.064-.443h6.027a2.6 2.6 0 01-.286.336zm1.186-2.744c0 .179-.033.386-.082.602h-6.845a3.32 3.32 0 00-3.314 3.313v6.253a3.147 3.147 0 01-.602.073H12.952a.61.61 0 01-.603-.603V9.036a.61.61 0 01.603-.602h30.723a.61.61 0 01.602.602l-.001 28.916z" fill="#212121"/><path d="M37.049 15.06h-17.47a.903.903 0 100 1.807h17.47a.904.904 0 100-1.807zm0 12.048h-17.47a.903.903 0 100 1.808h17.47a.904.904 0 100-1.808zm-7.831 6.024h-9.639a.903.903 0 100 1.808h9.639a.903.903 0 100-1.808zm7.831-12.048h-17.47a.903.903 0 100 1.808h17.47a.904.904 0 100-1.808z" fill="#212121"/></svg>