<svg width="60" height="60" fill="none" xmlns="http://www.w3.org/2000/svg"><g clip-path="url(#clip0)"><path d="M29.358 46.973h3.585s1.084-.12 1.635-.716c.51-.548.492-1.575.492-1.575s-.072-4.812 2.164-5.52c2.201-.698 5.029 4.65 8.025 6.709 2.265 1.556 3.987 1.215 3.987 1.215l8.014-.113s4.193-.259 2.205-3.555c-.161-.27-1.159-2.438-5.959-6.893-5.025-4.665-4.35-3.908 1.703-11.975 3.686-4.913 5.16-7.913 4.699-9.195-.439-1.223-3.15-.9-3.15-.9l-9.016.052s-.668-.09-1.166.206c-.484.293-.795.968-.795.968s-1.43 3.803-3.334 7.035c-4.017 6.822-5.626 7.182-6.282 6.758-1.527-.986-1.144-3.967-1.144-6.083 0-6.611 1.001-9.368-1.954-10.08-.983-.237-1.703-.394-4.212-.42-3.217-.034-5.944.01-7.485.765-1.028.502-1.819 1.624-1.335 1.687.596.08 1.946.364 2.663 1.34.926 1.256.892 4.083.892 4.083s.533 7.782-1.241 8.75c-1.22.663-2.888-.69-6.47-6.882-1.833-3.17-3.221-6.676-3.221-6.676s-.266-.652-.742-1.001c-.578-.424-1.388-.559-1.388-.559l-8.573.053s-1.287.037-1.76.596c-.42.499-.033 1.526-.033 1.526s6.713 15.703 14.311 23.62c6.972 7.256 14.885 6.78 14.885 6.78z" fill="#fff"/></g><defs><clipPath id="clip0"><path fill="#fff" d="M0 0h60v60H0z"/></clipPath></defs></svg>