<svg width="50" height="50" fill="none" xmlns="http://www.w3.org/2000/svg"><path d="M44.14 14.365l2.93 15.466-2.93 14.212H5.86l-2.93-13.9 2.93-15.778c-.97-.728 5.293-1.155 9.442 1.96 5.109 3.836 8.622 11.53 9.698 12.337.166-.125.817-5.013 6.192-9.047 4.104-3.082 13.502-5.665 12.949-5.25z" fill="#FFF5F5"/><path d="M44.14 44.043l2.93-14.212-2.93-15.466c.554-.416-8.844 2.168-12.948 5.25-5.375 4.034-6.026 8.922-6.192 9.047v15.38h19.14z" fill="#E3E7EA"/><path d="M37.241 19.551a104 104 0 00-.179.134l.18-.134z" fill="#00A66C"/><path d="M5.86 9.62v34.423H4.394A4.389 4.389 0 010 39.648V10.352c0-.118 0-.235.03-.352l5.83-.38z" fill="#F03800"/><path d="M50 10.352v29.296a4.389 4.389 0 01-4.395 4.395h-1.464V12.549L49.97 10c.029.117.029.234.029.352z" fill="#CD0000"/><path d="M49.97 10C20.987 31.747 54.122 6.812 25 28.662 22.457 26.754 34.115 35.575.03 10a4.357 4.357 0 014.365-4.043l11.561 3.544L25 21.338l6.538-10.03 14.067-5.351A4.357 4.357 0 0149.971 10z" fill="#FF641A"/><path d="M25 28.662c.008.006.007.006 0 0C27.044 27.128 46.56 12.56 49.97 10a4.357 4.357 0 00-4.364-4.043l-14.068 5.35L25 21.337v7.325z" fill="#F03800"/><path d="M45.605 5.957L25 21.337 4.395 5.958h41.21z" fill="#FFF5F5"/><path d="M45.605 5.957H25v15.38l20.605-15.38z" fill="#E3E7EA"/></svg>