<svg width="50" height="50" fill="none" xmlns="http://www.w3.org/2000/svg"><path d="M30.654 36.787c4.034-6.69 9.131-16.094 9.131-20.928 0-8.154-6.63-14.785-14.785-14.785-8.154 0-14.785 6.631-14.785 14.785 0 4.834 5.098 14.239 9.13 20.928-4.784.361-15.673 1.66-15.673 5.967 0 4.238 11.055 6.172 21.338 6.172 10.273 0 21.338-1.934 21.338-6.172-.01-4.307-10.908-5.606-15.694-5.967zM12.256 15.86c0-7.03 5.723-12.754 12.744-12.754 7.031 0 12.754 5.723 12.754 12.754 0 6.143-9.785 21.553-12.754 26.084-2.969-4.53-12.744-19.941-12.744-26.084zM25 46.885c-12.49 0-19.297-2.735-19.297-4.14 0-1.085 4.492-3.419 14.844-4.014 1.943 3.134 3.418 5.351 3.613 5.615.264.351 1.035.771 1.69 0 .205-.244 1.67-2.48 3.613-5.615 10.352.595 14.844 2.92 14.844 4.013-.01 1.416-6.817 4.14-19.307 4.14z" fill="#231F20"/><path d="M31.436 15.86A6.435 6.435 0 0025 9.423a6.435 6.435 0 00-6.435 6.435A6.435 6.435 0 0025 22.295a6.435 6.435 0 006.436-6.436zm-10.84 0a4.405 4.405 0 018.809 0 4.405 4.405 0 01-8.809 0z" fill="#231F20"/></svg>