<svg width="50" height="50" fill="none" xmlns="http://www.w3.org/2000/svg"><g clip-path="url(#clip0)" fill="#212121"><path d="M31.055 20.687c-1.642 0-3.237.319-4.74.946a.977.977 0 00.753 1.803 10.289 10.289 0 013.987-.796c5.708 0 10.352 4.644 10.352 10.352s-4.644 10.351-10.352 10.351S20.704 38.7 20.704 32.992c0-1.38.266-2.72.793-3.982a.977.977 0 00-1.803-.752 12.234 12.234 0 00-.944 4.734c0 6.785 5.52 12.304 12.305 12.304s12.305-5.52 12.305-12.304c0-6.785-5.52-12.305-12.305-12.305z"/><path d="M31.055 41c4.416 0 8.008-3.593 8.008-8.008 0-4.416-3.592-8.008-8.008-8.008-4.415 0-8.008 3.592-8.008 8.008 0 4.415 3.593 8.008 8.008 8.008zm0-14.063a6.062 6.062 0 016.055 6.055 6.062 6.062 0 01-6.055 6.054A6.062 6.062 0 0125 32.992a6.062 6.062 0 016.055-6.055z"/><path d="M45.047 16h-2.97l-3.41-5.77a.977.977 0 00-.84-.48H24.284a.977.977 0 00-.841.48L20.034 16h-5.58v-1.172a3.52 3.52 0 00-3.517-3.516 3.52 3.52 0 00-3.515 3.516v1.171h-2.47A4.958 4.958 0 000 20.953v24.08a4.958 4.958 0 004.953 4.952h40.094A4.958 4.958 0 0050 45.03V20.952A4.958 4.958 0 0045.047 16zm-20.205-4.297h12.427l2.539 4.296H22.303l2.539-4.296zM9.375 14.828c0-.862.701-1.563 1.563-1.563.861 0 1.562.701 1.562 1.563v1.171H9.375v-1.171zM48.047 45.03c0 1.654-1.346 3-3 3H4.953c-1.654 0-3-1.346-3-3V20.952c0-1.654 1.346-3 3-3h40.094c1.654 0 3 1.346 3 3v24.08z"/><path d="M31.055 31.087c1.05 0 1.904.855 1.904 1.905a.977.977 0 101.954 0 3.862 3.862 0 00-3.858-3.858.977.977 0 100 1.953zm0-23.907c.54 0 .977-.437.977-.976V.992a.977.977 0 00-1.953 0v5.212c0 .54.437.976.976.976zm4.647 0c.25 0 .5-.095.69-.286l3.584-3.583a.977.977 0 00-1.381-1.381l-3.583 3.583a.977.977 0 00.69 1.667zm-9.984-.286a.974.974 0 001.38 0 .977.977 0 000-1.381L23.517 1.93a.977.977 0 00-1.381 1.381l3.583 3.583zM13.477 24.007H8.398a.977.977 0 000 1.953h5.079a.977.977 0 000-1.953zm9.566 1.953a.984.984 0 00.69-.286.982.982 0 00.287-.69.984.984 0 00-.287-.69.984.984 0 00-.69-.287.98.98 0 00-.69 1.667.982.982 0 00.69.286z"/></g><defs><clipPath id="clip0"><path fill="#fff" d="M0 0h50v50H0z"/></clipPath></defs></svg>