<svg width="50" height="50" fill="none" xmlns="http://www.w3.org/2000/svg"><path d="M43.243 23.096a5.704 5.704 0 00-3.275-10.378 5.704 5.704 0 00-5.708 5.708c0 1.93.96 3.64 2.434 4.67a9.892 9.892 0 00-3.374 1.978 12.796 12.796 0 00-4.63-2.523 7.248 7.248 0 003.492-6.193 7.228 7.228 0 00-7.232-7.232 7.235 7.235 0 00-3.74 13.426 12.905 12.905 0 00-4.58 2.492 9.971 9.971 0 00-3.334-1.939 5.704 5.704 0 00-3.275-10.378 5.704 5.704 0 00-5.708 5.709c0 1.93.96 3.64 2.434 4.67C2.82 24.46 0 28.19 0 32.572v.653c0 .02.02.04.04.04h12.099c-.07.544-.109 1.108-.109 1.672v.672a5.26 5.26 0 005.263 5.264h15.335a5.26 5.26 0 005.263-5.264v-.672c0-.564-.04-1.128-.109-1.672H49.96c.02 0 .04-.02.04-.04v-.653a10.058 10.058 0 00-6.757-9.477zm-7.4-4.68a4.13 4.13 0 014.125-4.125 4.13 4.13 0 014.126 4.125c0 2.246-1.81 4.076-4.047 4.126h-.158a4.12 4.12 0 01-4.046-4.126zm-16.561-2.058a5.653 5.653 0 015.649-5.649 5.653 5.653 0 015.649 5.65 5.657 5.657 0 01-5.323 5.638h-.653a5.657 5.657 0 01-5.322-5.639zM5.867 18.416a4.13 4.13 0 014.125-4.125 4.13 4.13 0 014.125 4.125c0 2.246-1.81 4.076-4.046 4.126h-.159a4.126 4.126 0 01-4.045-4.126zm6.549 13.257H1.603c.445-4.214 4.006-7.519 8.33-7.548h.118a8.365 8.365 0 015.392 2.008 12.99 12.99 0 00-3.027 5.54zm23.872 3.937a3.686 3.686 0 01-3.68 3.68H17.273a3.686 3.686 0 01-3.68-3.68v-.672c0-6.144 4.907-11.17 11.011-11.348.11.01.228.01.337.01.108 0 .227 0 .336-.01 6.104.178 11.011 5.204 11.011 11.348v.672zm1.177-3.937a12.954 12.954 0 00-2.997-5.5 8.405 8.405 0 015.441-2.048h.119c4.323.03 7.885 3.334 8.33 7.548H37.465z" fill="#000"/></svg>