<svg width="50" height="50" fill="none" xmlns="http://www.w3.org/2000/svg"><g clip-path="url(#clip0)" fill="#000"><path d="M29.946 17.48c.54 0 .979-.437.979-.976a.978.978 0 00-1.957 0c0 .539.437.976.978.976zm-9.784 0c.54 0 .978-.437.978-.976a.978.978 0 00-1.957 0c0 .539.437.976.979.976zm2.276 6.713a6.1 6.1 0 002.616.583 6.11 6.11 0 002.565-.56.976.976 0 10-.818-1.774c-.55.252-1.138.38-1.747.38a4.151 4.151 0 01-1.782-.395.976.976 0 10-.834 1.767z"/><path d="M46.633 39.528c0-5.37-6.128-9.581-11.38-9.78l-2.68-2.403c3.264-2.377 5.245-6.196 5.245-10.255v-6.445c0-5.924-4.844-10.743-10.798-10.743h-3.913c-5.946 0-10.73 4.802-10.73 10.743v6.445c0 4.052 1.955 7.864 5.177 10.236l-2.7 2.421c-5.241.2-11.38 4.4-11.38 9.781v9.398c0 .54.438.976.978.976h41.203c.54 0 .978-.437.978-.976v-9.398zm-23.747 3.93h4.33l1.025 4.491h-6.41l1.055-4.492zm4.413-1.954h-4.475l-.75-2.334 2.98-1.488 3.044 1.52-.799 2.302zm-2.245-6.756l-3.4-5.429a12.757 12.757 0 006.794.009l-3.394 5.42zm1.4 1.45l4.698-7.503 2.533 2.272-3.224 7.231-4.007-2zM23.107 1.855h3.913c4.875 0 8.841 3.943 8.841 8.79v.807l-1.837-2.64a.979.979 0 00-1.504-.127c-1.989 2.03-4.291 2.936-7.466 2.936-3.174 0-5.478-.905-7.468-2.936a.979.979 0 00-1.508.133l-1.743 2.55v-.723c0-4.847 3.935-8.79 8.772-8.79zM14.335 17.09v-2.257l2.717-3.975c2.177 1.848 4.75 2.716 8.002 2.716 3.255 0 5.83-.87 8.007-2.722l2.8 4.024v2.214c0 5.848-4.79 10.742-10.797 10.742-5.99 0-10.73-4.879-10.73-10.742zm4.62 11.606l4.699 7.502-4.009 2-3.224-7.23 2.534-2.272zM5.43 39.528c0-4.023 4.9-7.496 9.182-7.812l3.66 8.21a.979.979 0 001.332.476l.697-.348.794 2.467-1.276 5.428H5.43v-8.42zm39.245 8.421H30.248l-1.236-5.413.851-2.453.639.319a.98.98 0 001.331-.477l3.661-8.21c4.282.317 9.182 3.79 9.182 7.813v8.421z"/><path d="M37.774 43.457H33.86a.978.978 0 100 1.953h3.914a.977.977 0 100-1.953zm3.86 0a.978.978 0 11-.978.977c0-.54.438-.977.978-.977z"/></g><defs><clipPath id="clip0"><path fill="#fff" d="M0 0h50v50H0z"/></clipPath></defs></svg>