<svg xmlns="http://www.w3.org/2000/svg" viewBox="0 0 60 60" width="512" height="512"><path d="M57 21a3 3 0 00-3 3h-3.184A3 3 0 0048 22h-3V8a1 1 0 00-.293-.707l-7-7A1 1 0 0037 0H18a3 3 0 00-3 3v19h-3a3 3 0 00-2.816 2H6a3 3 0 00-6 0v6a3 3 0 006 0h3v1.785L.44 50.807A4.966 4.966 0 000 52.858V57a3 3 0 003 3h54a3 3 0 003-3v-4.142a4.966 4.966 0 00-.44-2.051L51 31.785V30h3a3 3 0 006 0v-6a3 3 0 00-3-3zM38 3.414L41.586 7H39a1 1 0 01-1-1zM17 3a1 1 0 011-1h18v4a3 3 0 003 3h4v18H17zm-5 21h3v3a2 2 0 002 2h26a2 2 0 002-2v-3h3a1 1 0 011 1v6H11v-6a1 1 0 011-1zm-8 6a1 1 0 01-2 0v-6a1 1 0 012 0v6zm2-2v-2h3v2zm51 30H3a1 1 0 01-1-1v-4h56v4a1 1 0 01-1 1zm.453-7H2.547l8.1-18h38.706zM51 28v-2h3v2zm7 2a1 1 0 01-2 0v-6a1 1 0 012 0z"/><path d="M39 11H21a1 1 0 000 2h18a1 1 0 000-2zm0 5H21a1 1 0 000 2h18a1 1 0 000-2zm0 5H21a1 1 0 000 2h18a1 1 0 000-2zm-1 26H22a1 1 0 000 2h16a1 1 0 000-2zm-20 0h-2a1 1 0 000 2h2a1 1 0 000-2zm-6 0h-2a1 1 0 000 2h2a1 1 0 000-2zm36 0a1 1 0 000 2h2a1 1 0 000-2zm-35-4h-2a1 1 0 000 2h2a1 1 0 000-2zm6 0h-2a1 1 0 000 2h2a1 1 0 000-2zm6 0h-2a1 1 0 000 2h2a1 1 0 000-2zm6 0h-2a1 1 0 000 2h2a1 1 0 000-2zm6 0h-2a1 1 0 000 2h2a1 1 0 000-2zm6 2a1 1 0 000-2h-2a1 1 0 000 2zm6 0a1 1 0 000-2h-2a1 1 0 000 2zm-32-9a1 1 0 00-1-1h-2a1 1 0 000 2h2a1 1 0 001-1zm6 0a1 1 0 00-1-1h-2a1 1 0 000 2h2a1 1 0 001-1zm3 1h2a1 1 0 000-2h-2a1 1 0 000 2zm6 0h2a1 1 0 000-2h-2a1 1 0 000 2zm6 0h2a1 1 0 000-2h-2a1 1 0 000 2zm6 0h2a1 1 0 000-2h-2a1 1 0 000 2zm-31 2h-2a1 1 0 000 2h2a1 1 0 000-2zm6 0h-2a1 1 0 000 2h2a1 1 0 000-2zm3 1a1 1 0 001 1h2a1 1 0 000-2h-2a1 1 0 00-1 1zm6 0a1 1 0 001 1h2a1 1 0 000-2h-2a1 1 0 00-1 1zm6 0a1 1 0 001 1h2a1 1 0 000-2h-2a1 1 0 00-1 1zm6 0a1 1 0 001 1h2a1 1 0 000-2h-2a1 1 0 00-1 1zm9-1h-2a1 1 0 000 2h2a1 1 0 000-2zm-5 8h-2a1 1 0 000 2h2a1 1 0 000-2z"/></svg>