<svg width="50" height="50" viewBox="0 0 50 50" fill="none" xmlns="http://www.w3.org/2000/svg">
<path d="M25 0C11.1922 0 0 11.1922 0 25C0 38.8078 11.1922 50 25 50C38.8063 50 50 38.8063 50 25C50 11.1922 38.8063 0 25 0ZM25 46.875C12.9188 46.875 3.12505 37.0812 3.12505 25C3.12505 12.9188 12.9188 3.12505 25 3.12505C37.0812 3.12505 46.875 12.9188 46.875 25C46.875 37.0812 37.0812 46.875 25 46.875Z" fill="white"/>
<path d="M36.4065 16.2388L20.3314 32.17L13.6423 25.6138C13.0267 25.0029 12.0268 25.0029 11.4111 25.6138C10.7939 26.2248 10.7939 27.2138 11.4111 27.8232L19.222 35.4778C19.8626 36.0419 20.8204 36.1044 21.4532 35.4778L38.6391 18.4482C39.2547 17.8388 39.2547 16.8482 38.6391 16.2388C38.022 15.6294 37.0237 15.6294 36.4065 16.2388Z" fill="white"/>
</svg>
