<svg width="50" height="50" viewBox="0 0 50 50" fill="none" xmlns="http://www.w3.org/2000/svg">
<g clip-path="url(#clip0)">
<path d="M45.5265 40.0804L43.5081 39.3796C44.6381 38.4847 45.3648 37.1023 45.3648 35.5524V34.073C45.3648 31.3814 43.1747 29.1913 40.4831 29.1913C37.7914 29.1913 35.6014 31.3814 35.6014 34.073V35.5524C35.6014 37.1023 36.3285 38.4847 37.4584 39.3796L35.4397 40.0804C34.145 40.5302 33.0566 41.3549 32.2773 42.4066H26.8246V40.2547C26.8246 37.4223 25.0267 34.8951 22.3511 33.9662L20.3323 33.2654C21.4622 32.3705 22.1893 30.9881 22.1893 29.4382V27.9588C22.1893 25.2668 19.9993 23.0771 17.3077 23.0771C14.616 23.0771 12.426 25.2672 12.426 27.9588V29.4382C12.426 30.9881 13.1531 32.3705 14.2826 33.2654L12.2643 33.9662C9.58862 34.8951 7.79076 37.4223 7.79076 40.2547V42.4066H0.73967C0.331116 42.4066 0 42.7377 0 43.1463V49.2605C0 49.669 0.331116 50.0001 0.73967 50.0001H31.509C31.5422 50.0001 31.575 49.9971 31.6074 49.9929C31.6399 49.9971 31.6727 50.0001 31.7062 50.0001H49.2603C49.6689 50.0001 50 49.669 50 49.2605V46.3689C50 43.5369 48.2025 41.0097 45.5265 40.0804V40.0804ZM37.0808 34.073C37.0808 32.1969 38.607 30.6707 40.4831 30.6707C42.3592 30.6707 43.8854 32.1969 43.8854 34.073V35.5524C43.8854 37.4284 42.3592 38.9547 40.4831 38.9547C38.607 38.9547 37.0808 37.4284 37.0808 35.5524V34.073ZM13.9053 27.9588C13.9053 26.0827 15.4316 24.5565 17.3077 24.5565C19.1837 24.5565 20.71 26.0827 20.71 27.9588V29.4382C20.71 31.3142 19.1837 32.8405 17.3077 32.8405C15.4316 32.8405 13.9053 31.3142 13.9053 29.4382V27.9588ZM18.8595 34.3198L19.5782 34.5693L17.3077 38.5087L15.0372 34.5693L15.7558 34.3198H18.8595ZM9.2701 40.2547C9.2701 38.0517 10.6686 36.086 12.7495 35.3635L13.6147 35.0633L16.6668 40.3596C16.7988 40.5889 17.0433 40.73 17.3077 40.73C17.572 40.73 17.8165 40.5889 17.9485 40.3596L21.0007 35.0633L21.8658 35.3635C23.9468 36.086 25.3448 38.0517 25.3448 40.2547V42.4066H9.2701V40.2547ZM1.47934 43.8859H31.4484C31.1363 44.6599 30.9666 45.4999 30.9666 46.3689V48.5208H1.47934V43.8859ZM48.5207 48.5208H32.4459V46.3689C32.4459 44.1659 33.844 42.2006 35.9249 41.4777L38.9313 40.434H42.0349L45.0413 41.4777C47.1226 42.2006 48.5207 44.1659 48.5207 46.3689V48.5208Z" fill="black"/>
<path d="M45.3156 5.32532H37.8021C37.3936 5.32532 37.0625 5.65681 37.0625 6.06499C37.0625 6.47354 37.3936 6.80466 37.8021 6.80466H45.3156C47.0829 6.80466 48.5207 8.24242 48.5207 10.0101V20.2663C48.5207 22.0337 47.0829 23.4715 45.3156 23.4715H35.1578C34.7492 23.4715 34.4181 23.8026 34.4181 24.2111V27.3567L30.7499 23.6881C30.611 23.5493 30.423 23.4715 30.2269 23.4715H24.2111C22.4438 23.4715 21.0056 22.0337 21.0056 20.2663V10.0098C21.0056 8.24242 22.4434 6.80466 24.2111 6.80466H34.3441C34.7527 6.80466 35.0838 6.47354 35.0838 6.06499C35.0838 5.65643 34.7527 5.32532 34.3441 5.32532H30.4733V4.68445C30.4733 2.10152 28.3718 0 25.7889 0H4.68445C2.10152 0 0 2.10152 0 4.68445V6.31981C0 6.72836 0.331116 7.05948 0.73967 7.05948C1.14822 7.05948 1.47934 6.72836 1.47934 6.31981V4.68445C1.47934 2.9171 2.9171 1.47934 4.68445 1.47934H25.7889C27.5562 1.47934 28.994 2.9171 28.994 4.68445V5.32532H24.2111C21.6282 5.32532 19.5267 7.42683 19.5267 10.0098V18.1458H11.7851C11.3766 18.1458 11.0455 18.4769 11.0455 18.8854V22.031L7.37724 18.3624C7.23839 18.2236 7.05032 18.1458 6.85425 18.1458H4.68445C2.9171 18.1458 1.47934 16.708 1.47934 14.9406V9.75914C1.47934 9.35059 1.14822 9.01947 0.73967 9.01947C0.331116 9.01947 0 9.35059 0 9.75914V14.9406C0 17.524 2.10152 19.6251 4.68445 19.6251H6.54755L11.2621 24.3397C11.4037 24.4812 11.5929 24.5564 11.7851 24.556C11.8805 24.556 11.9766 24.5377 12.0682 24.4999C12.3444 24.3855 12.5248 24.1158 12.5248 23.8167V19.6251H19.5267V20.2663C19.5267 22.8493 21.6282 24.9504 24.2111 24.9504H29.9206L34.6348 29.665C34.7763 29.8065 34.9655 29.8817 35.1578 29.8817C35.2531 29.8817 35.3493 29.8634 35.4408 29.8252C35.717 29.7108 35.8974 29.4411 35.8974 29.142V24.9504H45.3156C47.8985 24.9504 50 22.8493 50 20.2663V10.0098C50 7.42683 47.8985 5.32532 45.3156 5.32532Z" fill="black"/>
</g>
<defs>
<clipPath id="clip0">
<rect width="50" height="50" fill="white"/>
</clipPath>
</defs>
</svg>
