<svg width="50" height="50" viewBox="0 0 50 50" fill="none" xmlns="http://www.w3.org/2000/svg">
<g clip-path="url(#clip0)">
<path d="M46.6672 8.3333H17.0839L15.1672 1.99247C14.7135 0.515597 13.1556 -0.320951 11.6739 0.116636L7.42969 1.36664C6.96215 1.50493 6.5382 1.76154 6.19886 2.11164L1.41719 7.06414C1.05764 7.43989 0.809534 7.90813 0.700525 8.41664C0.213025 10.6666 -1.13281 18.8233 2.05886 29.375C5.25052 39.9266 10.8922 46.0216 12.5505 47.6375C12.9221 48.0022 13.3873 48.2572 13.8947 48.3741L20.6389 49.93C20.8474 49.9782 21.0607 50.0025 21.2747 50.0025C21.5466 50.0023 21.8171 49.9633 22.078 49.8866L24.4264 49.1941L26.3189 48.6358C27.0393 48.4282 27.6456 47.9388 28.0005 47.2783C28.3541 46.629 28.4319 45.8647 28.2164 45.1575L27.1605 41.6666H46.6672C48.5081 41.6666 50.0005 40.1743 50.0005 38.3333V11.6666C50.0005 9.82569 48.5081 8.3333 46.6672 8.3333V8.3333ZM33.5422 24.75L48.2314 11.1116C48.2974 11.2893 48.3321 11.4771 48.3339 11.6666V38.3333C48.3315 38.5119 48.3002 38.6889 48.2414 38.8575L33.5422 24.75ZM46.6672 9.99997C46.7617 10.0014 46.856 10.0108 46.9489 10.0283L29.5005 26.2233C28.8613 26.8162 27.8731 26.8162 27.2339 26.2233L15.2339 15.1141L16.118 14.8533C16.8371 14.6443 17.4421 14.1552 17.7972 13.4958C18.1503 12.8469 18.2275 12.0831 18.0114 11.3766L17.5922 9.99997H46.6672ZM13.1122 34.3591C11.3917 32.253 10.1125 29.8223 9.35053 27.2116C8.27422 23.9221 8.12743 20.3993 8.92636 17.0316C8.94356 16.9862 8.98181 16.952 9.02886 16.94L13.368 15.6608L23.1547 24.7175L13.1122 34.3591ZM26.5289 46.485C26.3844 46.7528 26.138 46.951 25.8455 47.035L24.7405 47.3608L22.7114 40.6458C22.6294 40.3558 22.3973 40.1326 22.1042 40.0621C21.8112 39.9916 21.503 40.0849 21.2981 40.306C21.0933 40.527 21.0238 40.8415 21.1164 41.1283L23.1464 47.8333L21.608 48.2866C21.4146 48.3441 21.2096 48.3504 21.013 48.305L14.2689 46.75C14.0599 46.7011 13.8684 46.5956 13.7155 46.445C12.1322 44.8991 6.72636 39.0633 3.65386 28.8933C0.581358 18.7233 1.86302 10.9166 2.32886 8.7683C2.37366 8.56213 2.47461 8.37236 2.62052 8.21997L7.39719 3.26997C7.53498 3.12715 7.70715 3.02213 7.89719 2.96497L9.44802 2.5083L11.4772 9.22247C11.5834 9.57417 11.9073 9.81485 12.2747 9.81497C12.3563 9.81538 12.4375 9.8033 12.5155 9.77914C12.9559 9.64601 13.205 9.18123 13.0722 8.7408L11.0497 2.03747L12.1447 1.71497C12.7496 1.53264 13.3885 1.87124 13.5772 2.47414L16.4105 11.8575C16.4975 12.1389 16.4675 12.4435 16.3272 12.7025C16.1823 12.9701 15.9362 13.1685 15.6439 13.2533L14.538 13.5791L14.2105 12.4958C14.069 12.0664 13.6109 11.8282 13.1782 11.9589C12.7454 12.0896 12.4957 12.5415 12.6155 12.9775L12.9397 14.0508L8.55802 15.3425C7.95731 15.518 7.48915 15.9902 7.31886 16.5925C6.43984 20.2613 6.59124 24.1017 7.75636 27.69C8.7796 31.3321 10.7823 34.6237 13.5464 37.2066C14.0164 37.6211 14.6673 37.763 15.2672 37.5816L19.6597 36.2866L19.9872 37.37C20.0691 37.66 20.3013 37.8832 20.5943 37.9537C20.8873 38.0241 21.1956 37.9309 21.4004 37.7098C21.6053 37.4887 21.6748 37.1743 21.5822 36.8875L21.258 35.8141L22.3522 35.4916C22.9571 35.3107 23.5953 35.6487 23.7855 36.2508L26.6189 45.635C26.7065 45.9182 26.6755 46.2249 26.533 46.485H26.5289ZM26.6564 40L25.3797 35.7741C24.9253 34.2945 23.3634 33.4574 21.8797 33.8983L14.7964 35.9866C14.7455 36.0019 14.6904 35.992 14.648 35.96C14.5314 35.8575 14.398 35.73 14.2439 35.585L24.3805 25.8516L26.1005 27.4441C27.3815 28.6253 29.3546 28.6253 30.6355 27.4441L32.3189 25.8808L46.9914 39.9641C46.8847 39.9867 46.7762 39.9987 46.6672 40H26.6564Z" fill="black"/>
<path d="M21.6668 13.3332H35.0002C35.4604 13.3332 35.8335 12.9601 35.8335 12.4998C35.8335 12.0396 35.4604 11.6665 35.0002 11.6665H21.6668C21.2066 11.6665 20.8335 12.0396 20.8335 12.4998C20.8335 12.9601 21.2066 13.3332 21.6668 13.3332Z" fill="black"/>
<path d="M45.8338 18.3335C45.3736 18.3335 45.0005 18.7066 45.0005 19.1668V30.8335C45.0005 31.2937 45.3736 31.6668 45.8338 31.6668C46.2941 31.6668 46.6672 31.2937 46.6672 30.8335V19.1668C46.6672 18.7066 46.2941 18.3335 45.8338 18.3335Z" fill="black"/>
</g>
<defs>
<clipPath id="clip0">
<rect width="50" height="50" fill="white"/>
</clipPath>
</defs>
</svg>
