<svg width="50" height="50" viewBox="0 0 50 50" fill="none" xmlns="http://www.w3.org/2000/svg">
<path d="M43.6747 6.62645H39.4578V2.40966C39.4579 1.08428 38.3734 0 37.0487 0H6.32531C5.00002 0 3.91574 1.08428 3.91574 2.40966V40.9638C3.91574 42.2891 5.00002 43.3735 6.3254 43.3735H10.5423V47.5903C10.5423 48.9156 11.6261 50 12.952 50H33.4333C34.758 50 36.6327 49.2566 37.5971 48.3488L44.3285 42.0127C45.2941 41.1049 46.0832 39.2772 46.0832 37.9519L46.0844 9.03631C46.0843 7.71082 44.9999 6.62645 43.6747 6.62645ZM10.5421 9.03621V41.5662H6.32531C5.99884 41.5662 5.72296 41.2904 5.72296 40.9639V2.40966C5.72296 2.0832 5.99884 1.80732 6.32531 1.80732H37.0488C37.3747 1.80732 37.6511 2.0832 37.6511 2.40966V6.62655H12.9518C11.6259 6.62655 10.5421 7.71082 10.5421 9.03621ZM43.0898 40.6969L36.3585 47.0325C36.2206 47.1621 36.041 47.2892 35.8427 47.4102V41.8674C35.8427 41.4535 36.0096 41.0812 36.2849 40.8041C36.5627 40.5288 36.9349 40.3614 37.3488 40.3614H43.3759C43.2825 40.4884 43.1868 40.6053 43.0898 40.6969ZM44.2758 37.9517C44.2758 38.1306 44.2432 38.3378 44.1939 38.554H37.3487C35.5205 38.5576 34.0391 40.039 34.0354 41.8673V48.1196C33.8204 48.1631 33.6131 48.1925 33.4331 48.1925H12.9518V48.1926C12.6246 48.1926 12.3494 47.9167 12.3494 47.5902V9.03612C12.3494 8.70965 12.6247 8.43377 12.9518 8.43377H43.6746C44.001 8.43377 44.2769 8.70965 44.2769 9.03612L44.2758 37.9517Z" fill="#212121"/>
<path d="M37.0487 15.0601H19.5789C19.0795 15.0601 18.6753 15.4643 18.6753 15.9637C18.6753 16.4631 19.0796 16.8673 19.5789 16.8673H37.0487C37.5475 16.8673 37.9523 16.4631 37.9523 15.9637C37.9523 15.4643 37.5475 15.0601 37.0487 15.0601Z" fill="#212121"/>
<path d="M37.0487 27.1083H19.5789C19.0795 27.1083 18.6753 27.5125 18.6753 28.0119C18.6753 28.5113 19.0796 28.9155 19.5789 28.9155H37.0487C37.5475 28.9155 37.9523 28.5113 37.9523 28.0119C37.9523 27.5124 37.5475 27.1083 37.0487 27.1083Z" fill="#212121"/>
<path d="M29.2175 33.1323H19.579C19.0796 33.1323 18.6754 33.5365 18.6754 34.0359C18.6754 34.5354 19.0796 34.9395 19.579 34.9395H29.2175C29.7163 34.9395 30.1205 34.5354 30.1205 34.0359C30.1205 33.5365 29.7163 33.1323 29.2175 33.1323Z" fill="#212121"/>
<path d="M37.0487 21.0842H19.5789C19.0795 21.0842 18.6753 21.4884 18.6753 21.9878C18.6753 22.4873 19.0796 22.8915 19.5789 22.8915H37.0487C37.5475 22.8915 37.9523 22.4873 37.9523 21.9878C37.9523 21.4884 37.5475 21.0842 37.0487 21.0842Z" fill="#212121"/>
</svg>
