<svg width="60" height="60" viewBox="0 0 60 60" fill="none" xmlns="http://www.w3.org/2000/svg">
<g clip-path="url(#clip0)">
<path d="M29.358 46.9732H32.9433C32.9433 46.9732 34.0271 46.8532 34.5784 46.2569C35.0884 45.7093 35.0697 44.6817 35.0697 44.6817C35.0697 44.6817 34.9984 39.8701 37.2336 39.1613C39.435 38.4638 42.2627 43.8117 45.2592 45.8706C47.5243 47.4269 49.2457 47.0857 49.2457 47.0857L57.2601 46.9732C57.2601 46.9732 61.4529 46.7144 59.4652 43.4179C59.304 43.1479 58.3064 40.9802 53.506 36.5249C48.4807 31.8595 49.1557 32.6171 55.2087 24.5502C58.8952 19.6374 60.369 16.6372 59.9078 15.3546C59.469 14.132 56.7575 14.4545 56.7575 14.4545L47.7419 14.507C47.7419 14.507 47.0743 14.417 46.5755 14.7133C46.0917 15.0058 45.7805 15.6808 45.7805 15.6808C45.7805 15.6808 44.3516 19.4836 42.4465 22.7164C38.4299 29.5381 36.8211 29.8981 36.1648 29.4744C34.6384 28.488 35.0209 25.5066 35.0209 23.3914C35.0209 16.7797 36.0222 14.0232 33.067 13.3107C32.0845 13.0744 31.3644 12.9169 28.8555 12.8906C25.6377 12.8569 22.9113 12.9019 21.3699 13.6557C20.3423 14.1582 19.551 15.2796 20.0348 15.3433C20.6311 15.4221 21.9812 15.7071 22.6975 16.6822C23.6238 17.9385 23.5901 20.7662 23.5901 20.7662C23.5901 20.7662 24.1226 28.548 22.3487 29.5156C21.1299 30.1794 19.461 28.8256 15.8795 22.6339C14.0456 19.4649 12.658 15.9584 12.658 15.9584C12.658 15.9584 12.3918 15.3058 11.9155 14.957C11.3379 14.5333 10.5279 14.3982 10.5279 14.3982L1.95473 14.4507C1.95473 14.4507 0.668386 14.4883 0.195852 15.047C-0.224179 15.5458 0.162099 16.5734 0.162099 16.5734C0.162099 16.5734 6.87509 32.2758 14.4732 40.1927C21.4449 47.4494 29.358 46.9732 29.358 46.9732Z" fill="white"/>
</g>
<defs>
<clipPath id="clip0">
<rect width="60" height="60" fill="white"/>
</clipPath>
</defs>
</svg>
