<svg width="50" height="50" viewBox="0 0 50 50" fill="none" xmlns="http://www.w3.org/2000/svg">
<path d="M44.1406 14.3652L47.0703 29.8308L44.1406 44.0429H5.85938L2.92969 30.1425L5.85938 14.3652C4.89023 13.6375 11.1532 13.2105 15.3025 16.3256C20.411 20.1609 23.9241 27.8543 25 28.662C25.1662 28.5372 25.8175 23.6492 31.1916 19.6146C35.2956 16.5334 44.6938 13.9498 44.1406 14.3652V14.3652Z" fill="#FFF5F5"/>
<path d="M44.1406 44.0426L47.0703 29.8305L44.1406 14.3648C44.6938 13.9494 35.2956 16.533 31.1916 19.6142C25.8174 23.6488 25.1663 28.5369 25 28.6617V44.0426H44.1406Z" fill="#E3E7EA"/>
<path d="M37.2411 19.5513C37.1871 19.5917 37.1223 19.6403 37.0623 19.6854C37.0233 19.7147 37.1009 19.6564 37.2411 19.5513Z" fill="#00A66C"/>
<path d="M5.85938 9.61914V44.043H4.39453C1.96279 44.043 0 42.08 0 39.6484V10.3516C0 10.2343 0 10.1171 0.0292969 10L5.85938 9.61914Z" fill="#F03800"/>
<path d="M50 10.3516V39.6484C50 42.08 48.0372 44.043 45.6055 44.043H44.1406V12.5488L49.9707 10C50 10.1171 50 10.2343 50 10.3516Z" fill="#CD0000"/>
<path d="M49.9707 10C20.9856 31.7474 54.1214 6.8124 25 28.6621C22.4567 26.7539 34.1154 35.5746 0.0292969 10C0.205078 7.71475 2.08018 5.95703 4.39453 5.95703L15.9562 9.50127L25 21.3379L31.5384 11.3072L45.6055 5.95703C47.9198 5.95703 49.7949 7.71475 49.9707 10Z" fill="#FF641A"/>
<path d="M25 28.6621C25.0079 28.668 25.0071 28.6675 25 28.6621C27.0442 27.1283 46.5598 12.5592 49.9707 10C49.7949 7.71475 47.9199 5.95703 45.6055 5.95703L31.5384 11.3071L25 21.3379V28.6621Z" fill="#F03800"/>
<path d="M45.6055 5.95703L25 21.3379L4.39453 5.95703H45.6055Z" fill="#FFF5F5"/>
<path d="M45.6055 5.95703H25V21.3379L45.6055 5.95703Z" fill="#E3E7EA"/>
</svg>
