<svg width="50" height="50" viewBox="0 0 50 50" fill="none" xmlns="http://www.w3.org/2000/svg">
<path d="M30.6543 36.7871C34.6875 30.0977 39.7852 20.6934 39.7852 15.8594C39.7852 7.70508 33.1543 1.07422 25 1.07422C16.8457 1.07422 10.2148 7.70508 10.2148 15.8594C10.2148 20.6934 15.3125 30.0977 19.3457 36.7871C14.5605 37.1484 3.67188 38.4473 3.67188 42.7539C3.67188 46.9922 14.7266 48.9258 25.0098 48.9258C35.2832 48.9258 46.3477 46.9922 46.3477 42.7539C46.3379 38.4473 35.4395 37.1484 30.6543 36.7871ZM12.2559 15.8594C12.2559 8.82812 17.9785 3.10547 25 3.10547C32.0312 3.10547 37.7539 8.82812 37.7539 15.8594C37.7539 22.002 27.9687 37.4121 25 41.9434C22.0312 37.4121 12.2559 22.002 12.2559 15.8594ZM25 46.8848C12.5098 46.8848 5.70313 44.1504 5.70313 42.7441C5.70313 41.6602 10.1953 39.3262 20.5469 38.7305C22.4902 41.8652 23.9648 44.082 24.1602 44.3457C24.4238 44.6973 25.1953 45.1172 25.8496 44.3457C26.0547 44.1016 27.5195 41.8652 29.4629 38.7305C39.8145 39.3262 44.3066 41.6504 44.3066 42.7441C44.2969 44.1602 37.4902 46.8848 25 46.8848V46.8848Z" fill="#231F20"/>
<path d="M31.436 15.8594C31.436 12.3047 28.5552 9.42383 25.0005 9.42383C21.4458 9.42383 18.5649 12.3047 18.5649 15.8594C18.5649 19.4141 21.4458 22.2949 25.0005 22.2949C28.5552 22.2949 31.436 19.4141 31.436 15.8594ZM20.5962 15.8594C20.5962 13.4277 22.5688 11.4551 25.0005 11.4551C27.4321 11.4551 29.4048 13.4277 29.4048 15.8594C29.4048 18.291 27.4321 20.2637 25.0005 20.2637C22.5688 20.2637 20.5962 18.291 20.5962 15.8594Z" fill="#231F20"/>
</svg>
