<svg width="50" height="50" viewBox="0 0 50 50" fill="none" xmlns="http://www.w3.org/2000/svg">
<g clip-path="url(#clip0)">
<path d="M31.0552 20.687C29.4132 20.687 27.8184 21.0055 26.3152 21.6333C25.8176 21.8412 25.5827 22.4132 25.7905 22.9108C25.9984 23.4086 26.5704 23.6432 27.0681 23.4355C28.3315 22.9077 29.673 22.6401 31.0552 22.6401C36.7631 22.6401 41.4068 27.2839 41.4068 32.9917C41.4068 38.6995 36.7631 43.3433 31.0552 43.3433C25.3473 43.3433 20.7036 38.6995 20.7036 32.9917C20.7036 31.6116 20.9704 30.272 21.4967 29.0103C21.7043 28.5124 21.469 27.9406 20.9713 27.733C20.4738 27.5257 19.9017 27.7606 19.694 28.2584C19.068 29.7597 18.7505 31.3521 18.7505 32.9917C18.7505 39.7766 24.2703 45.2964 31.0552 45.2964C37.8401 45.2964 43.3599 39.7766 43.3599 32.9917C43.3599 26.2068 37.8401 20.687 31.0552 20.687Z" fill="#212121"/>
<path d="M31.0552 40.9995C35.4707 40.9995 39.063 37.4072 39.063 32.9917C39.063 28.5762 35.4707 24.9839 31.0552 24.9839C26.6397 24.9839 23.0474 28.5762 23.0474 32.9917C23.0474 37.4072 26.6398 40.9995 31.0552 40.9995ZM31.0552 26.937C34.3938 26.937 37.1099 29.6532 37.1099 32.9917C37.1099 36.3302 34.3938 39.0464 31.0552 39.0464C27.7166 39.0464 25.0005 36.3303 25.0005 32.9917C25.0005 29.6531 27.7166 26.937 31.0552 26.937Z" fill="#212121"/>
<path d="M45.0473 15.9995H42.0766L38.6669 10.2293C38.4912 9.93193 38.1715 9.74951 37.8262 9.74951H24.2845C23.9391 9.74951 23.6194 9.93193 23.4437 10.2293L20.0341 15.9995H14.4531V14.8276C14.4531 12.8891 12.8761 11.312 10.9375 11.312C8.99893 11.312 7.42188 12.8891 7.42188 14.8276V15.9995H4.95273C2.22178 15.9995 0 18.2213 0 20.9523V45.0311C0 47.7621 2.22178 49.9839 4.95273 49.9839H45.0472C47.7781 49.9839 49.9999 47.7621 49.9999 45.0311V20.9523C50 18.2213 47.7781 15.9995 45.0473 15.9995ZM24.8417 11.7026H37.2688L39.8079 15.9995H22.3026L24.8417 11.7026ZM9.375 14.8276C9.375 13.9661 10.076 13.2651 10.9375 13.2651C11.799 13.2651 12.5 13.9661 12.5 14.8276V15.9995H9.375V14.8276ZM48.0469 45.0311C48.0469 46.6852 46.7013 48.0308 45.0473 48.0308H4.95273C3.29873 48.0308 1.95312 46.6851 1.95312 45.0311V20.9523C1.95312 19.2982 3.29873 17.9526 4.95273 17.9526H45.0472C46.7012 17.9526 48.0468 19.2982 48.0468 20.9523V45.0311H48.0469Z" fill="#212121"/>
<path d="M31.0552 31.0874C32.1053 31.0874 32.9595 31.9417 32.9595 32.9917C32.9595 33.5311 33.3967 33.9683 33.936 33.9683C34.4754 33.9683 34.9126 33.5311 34.9126 32.9917C34.9126 30.8647 33.1821 29.1343 31.0552 29.1343C30.5158 29.1343 30.0786 29.5716 30.0786 30.1108C30.0786 30.6501 30.5158 31.0874 31.0552 31.0874Z" fill="#212121"/>
<path d="M31.0552 7.18047C31.5945 7.18047 32.0317 6.74316 32.0317 6.20391V0.991699C32.0317 0.452441 31.5945 0.0151367 31.0552 0.0151367C30.5158 0.0151367 30.0786 0.452344 30.0786 0.991699V6.20391C30.0786 6.74326 30.5158 7.18047 31.0552 7.18047Z" fill="#212121"/>
<path d="M35.7021 7.18028C35.952 7.18028 36.202 7.08487 36.3927 6.89424L39.9758 3.31113C40.3571 2.92979 40.3571 2.31143 39.9757 1.92998C39.5943 1.54873 38.976 1.54873 38.5946 1.92998L35.0116 5.51319C34.6302 5.89453 34.6302 6.51289 35.0116 6.89434C35.2023 7.08496 35.4522 7.18028 35.7021 7.18028V7.18028Z" fill="#212121"/>
<path d="M25.7177 6.8942C25.9084 7.08483 26.1583 7.18024 26.4082 7.18024C26.6581 7.18024 26.9081 7.08483 27.0988 6.8942C27.4801 6.51285 27.4802 5.89449 27.0989 5.51305L23.5158 1.92994C23.1344 1.54879 22.516 1.54869 22.1347 1.92994C21.7533 2.31129 21.7532 2.92965 22.1346 3.3111L25.7177 6.8942Z" fill="#212121"/>
<path d="M13.4766 24.0073H8.39844C7.85908 24.0073 7.42188 24.4446 7.42188 24.9839C7.42188 25.5232 7.85908 25.9604 8.39844 25.9604H13.4766C14.0159 25.9604 14.4531 25.5232 14.4531 24.9839C14.4531 24.4445 14.0159 24.0073 13.4766 24.0073Z" fill="#212121"/>
<path d="M23.043 25.9604C23.2998 25.9604 23.5518 25.856 23.7334 25.6743C23.915 25.4927 24.0195 25.2416 24.0195 24.9839C24.0195 24.7271 23.915 24.4751 23.7334 24.2935C23.5518 24.1119 23.2998 24.0073 23.043 24.0073C22.7861 24.0073 22.5342 24.1118 22.3525 24.2935C22.1699 24.4751 22.0664 24.7271 22.0664 24.9839C22.0664 25.2407 22.1699 25.4927 22.3525 25.6743C22.5342 25.856 22.7852 25.9604 23.043 25.9604Z" fill="#212121"/>
</g>
<defs>
<clipPath id="clip0">
<rect width="50" height="50" fill="white"/>
</clipPath>
</defs>
</svg>
