<svg width="15" height="15" viewBox="0 0 15 15" fill="none" xmlns="http://www.w3.org/2000/svg">
<g clip-path="url(#clip0)">
<path d="M14.9785 5.77902C14.9268 5.61991 14.7893 5.50395 14.6238 5.47993L9.9737 4.8042L7.89407 0.590531C7.82006 0.440532 7.66728 0.345581 7.50003 0.345581C7.33274 0.345581 7.17999 0.440532 7.10595 0.590531L5.02624 4.8042L0.376254 5.47993C0.210757 5.50395 0.0732087 5.61991 0.0215293 5.77899C-0.0301795 5.9381 0.0129453 6.11274 0.13274 6.22948L3.49741 9.50937L2.70324 14.1407C2.67494 14.3056 2.74273 14.4722 2.87805 14.5705C2.9546 14.6261 3.04528 14.6544 3.13639 14.6544C3.20635 14.6544 3.27655 14.6377 3.34082 14.6039L7.5 12.4173L11.659 14.6039C11.8071 14.6817 11.9865 14.6688 12.1218 14.5705C12.2571 14.4722 12.3249 14.3055 12.2967 14.1406L11.5022 9.50937L14.8673 6.22945C14.987 6.11274 15.0302 5.9381 14.9785 5.77902Z" fill="white"/>
</g>
<defs>
<clipPath id="clip0">
<rect width="15" height="15" fill="white"/>
</clipPath>
</defs>
</svg>
