<svg width="50" height="50" viewBox="0 0 50 50" fill="none" xmlns="http://www.w3.org/2000/svg">
<g clip-path="url(#clip0)">
<path d="M29.9462 17.4805C30.4863 17.4805 30.9247 17.0429 30.9247 16.5039C30.9247 15.9649 30.4863 15.5273 29.9462 15.5273C29.405 15.5273 28.9678 15.9649 28.9678 16.5039C28.9678 17.0429 29.405 17.4805 29.9462 17.4805Z" fill="black"/>
<path d="M20.1616 17.4805C20.7017 17.4805 21.1401 17.0429 21.1401 16.5039C21.1401 15.9649 20.7017 15.5273 20.1616 15.5273C19.6204 15.5273 19.1831 15.9649 19.1831 16.5039C19.1831 17.0429 19.6204 17.4805 20.1616 17.4805Z" fill="black"/>
<path d="M22.438 24.1931C23.2594 24.5795 24.1396 24.7756 25.0535 24.7756C25.9475 24.7756 26.8105 24.5875 27.6189 24.2167C28.1101 23.9913 28.3249 23.4115 28.0994 22.9213C27.8735 22.4315 27.2925 22.2167 26.8014 22.4421C26.2514 22.6943 25.6631 22.8225 25.0535 22.8225C24.4301 22.8225 23.8308 22.6893 23.2724 22.4265C22.7835 22.1965 22.2002 22.4055 21.9701 22.8934C21.7397 23.3813 21.9491 23.9631 22.438 24.1931Z" fill="black"/>
<path d="M46.6331 39.5284C46.6331 34.1584 40.5054 29.947 35.253 29.7474L32.5733 27.3446C35.837 24.968 37.8181 21.1487 37.8181 17.0899V10.6446C37.8181 4.72146 32.9742 -0.0976562 27.0204 -0.0976562H23.1066C17.1608 -0.0976562 12.3777 4.70429 12.3777 10.6446V17.0899C12.3777 21.1419 14.3324 24.9539 17.5537 27.3263L14.8537 29.7474C9.61279 29.9466 3.47363 34.1473 3.47363 39.5284V48.9259C3.47363 49.4653 3.91165 49.9024 4.45211 49.9024H45.6546C46.1951 49.9024 46.6331 49.4653 46.6331 48.9259V39.5284ZM22.886 43.4571H27.2154L28.2412 47.9493H21.8303L22.886 43.4571ZM27.2995 41.504H22.8241L22.0734 39.1698L25.0539 37.6824L28.0983 39.2022L27.2995 41.504ZM25.0536 34.7481L21.6534 29.3194C22.7576 29.6258 23.905 29.7848 25.0635 29.7848C26.2109 29.7848 27.3499 29.6288 28.4484 29.3275L25.0536 34.7481ZM26.454 36.1977L31.1518 28.6954L33.6855 30.9674L30.4615 38.1982L26.454 36.1977ZM23.1066 1.85547H27.0204C31.8952 1.85547 35.8611 5.79797 35.8611 10.6446V11.4517L34.0238 8.81121C33.8575 8.57202 33.5927 8.41944 33.3018 8.39502C33.0105 8.37061 32.7246 8.47704 32.5205 8.68532C30.5315 10.7155 28.2286 11.6211 25.0539 11.6211C21.8796 11.6211 19.5764 10.7155 17.5858 8.68532C17.381 8.47589 17.0924 8.36984 16.8007 8.3954C16.5087 8.42096 16.2435 8.57584 16.0784 8.81769L14.3347 11.3678V10.6446C14.3347 5.79797 18.2696 1.85547 23.1066 1.85547V1.85547ZM14.3347 17.0899V14.8327L17.0522 10.8582C19.2293 12.7064 21.802 13.5742 25.0539 13.5742C28.3093 13.5742 30.8839 12.7045 33.0614 10.8525L35.8611 14.8762V17.0899C35.8611 22.9382 31.0716 27.8321 25.0635 27.8321C19.0749 27.8321 14.3347 22.9535 14.3347 17.0899V17.0899ZM18.9549 28.6957L23.6535 36.1977L19.6452 38.1982L16.4212 30.9674L18.9549 28.6957ZM5.43058 39.5284C5.43058 35.5054 10.3306 32.0317 14.6126 31.7158L18.2734 39.9255C18.382 40.1688 18.5857 40.3577 18.8372 40.4477C19.0887 40.5377 19.3658 40.5209 19.6051 40.4019L20.3022 40.0536L21.0961 42.521L19.8203 47.9493H5.43058V39.5284ZM44.6762 47.9493H30.2483L29.0122 42.5359L29.8634 40.083L30.5017 40.4019C30.7425 40.5221 31.0203 40.537 31.2695 40.4477C31.521 40.3577 31.7248 40.1688 31.8333 39.9255L35.4942 31.7158C39.7761 32.0321 44.6762 35.5054 44.6762 39.5284V47.9493Z" fill="black"/>
<path d="M37.7742 43.457H33.8603C33.3199 43.457 32.8818 43.8942 32.8818 44.4336C32.8818 44.973 33.3199 45.4102 33.8603 45.4102H37.7742C38.3147 45.4102 38.7527 44.973 38.7527 44.4336C38.7527 43.8942 38.3147 43.457 37.7742 43.457Z" fill="black"/>
<path d="M41.6342 43.457C42.1743 43.457 42.6127 43.8946 42.6127 44.4336C42.6127 44.9726 42.1743 45.4102 41.6342 45.4102C41.0942 45.4102 40.6558 44.9726 40.6558 44.4336C40.6558 43.8946 41.0942 43.457 41.6342 43.457Z" fill="black"/>
</g>
<defs>
<clipPath id="clip0">
<rect width="50" height="50" fill="white"/>
</clipPath>
</defs>
</svg>
