<?xml version="1.0" encoding="UTF-8"?>
<svg xmlns="http://www.w3.org/2000/svg" id="Icons" viewBox="0 0 60 60" width="512" height="512"><path d="M57,21a3,3,0,0,0-3,3H50.816A3,3,0,0,0,48,22H45V8a1,1,0,0,0-.293-.707l-7-7A1,1,0,0,0,37,0H18a3,3,0,0,0-3,3V22H12a3,3,0,0,0-2.816,2H6a3,3,0,0,0-6,0v6a3,3,0,0,0,6,0H9v1.785L.44,50.807A4.966,4.966,0,0,0,0,52.858V57a3,3,0,0,0,3,3H57a3,3,0,0,0,3-3V52.858a4.966,4.966,0,0,0-.44-2.051L51,31.785V30h3a3,3,0,0,0,6,0V24A3,3,0,0,0,57,21ZM38,3.414,41.586,7H39a1,1,0,0,1-1-1ZM17,3a1,1,0,0,1,1-1H36V6a3,3,0,0,0,3,3h4V27L17,27ZM12,24h3v3a2,2,0,0,0,2,2H43a2,2,0,0,0,2-2V24h3a1,1,0,0,1,1,1v6H11V25A1,1,0,0,1,12,24ZM4,30a1,1,0,0,1-2,0V24a1,1,0,0,1,2,0v6Zm2-2V26H9v2ZM57,58H3a1,1,0,0,1-1-1V53H58v4A1,1,0,0,1,57,58Zm.453-7H2.547l8.1-18H49.353ZM51,28V26h3v2Zm7,2a1,1,0,0,1-2,0V24a1,1,0,0,1,2,0Z"/><path d="M39,11H21a1,1,0,0,0,0,2H39a1,1,0,0,0,0-2Z"/><path d="M39,16H21a1,1,0,0,0,0,2H39a1,1,0,0,0,0-2Z"/><path d="M39,21H21a1,1,0,0,0,0,2H39a1,1,0,0,0,0-2Z"/><path d="M38,47H22a1,1,0,0,0,0,2H38a1,1,0,0,0,0-2Z"/><path d="M18,47H16a1,1,0,0,0,0,2h2a1,1,0,0,0,0-2Z"/><path d="M12,47H10a1,1,0,0,0,0,2h2a1,1,0,0,0,0-2Z"/><path d="M48,47a1,1,0,0,0,0,2h2a1,1,0,0,0,0-2Z"/><path d="M13,43H11a1,1,0,0,0,0,2h2a1,1,0,0,0,0-2Z"/><path d="M19,43H17a1,1,0,0,0,0,2h2a1,1,0,0,0,0-2Z"/><path d="M25,43H23a1,1,0,0,0,0,2h2a1,1,0,0,0,0-2Z"/><path d="M31,43H29a1,1,0,0,0,0,2h2a1,1,0,0,0,0-2Z"/><path d="M37,43H35a1,1,0,0,0,0,2h2a1,1,0,0,0,0-2Z"/><path d="M43,45a1,1,0,0,0,0-2H41a1,1,0,0,0,0,2Z"/><path d="M49,45a1,1,0,0,0,0-2H47a1,1,0,0,0,0,2Z"/><path d="M17,36a1,1,0,0,0-1-1H14a1,1,0,0,0,0,2h2A1,1,0,0,0,17,36Z"/><path d="M23,36a1,1,0,0,0-1-1H20a1,1,0,0,0,0,2h2A1,1,0,0,0,23,36Z"/><path d="M26,37h2a1,1,0,0,0,0-2H26a1,1,0,0,0,0,2Z"/><path d="M32,37h2a1,1,0,0,0,0-2H32a1,1,0,0,0,0,2Z"/><path d="M38,37h2a1,1,0,0,0,0-2H38a1,1,0,0,0,0,2Z"/><path d="M44,37h2a1,1,0,0,0,0-2H44a1,1,0,0,0,0,2Z"/><path d="M13,39H11a1,1,0,0,0,0,2h2a1,1,0,0,0,0-2Z"/><path d="M19,39H17a1,1,0,0,0,0,2h2a1,1,0,0,0,0-2Z"/><path d="M22,40a1,1,0,0,0,1,1h2a1,1,0,0,0,0-2H23A1,1,0,0,0,22,40Z"/><path d="M28,40a1,1,0,0,0,1,1h2a1,1,0,0,0,0-2H29A1,1,0,0,0,28,40Z"/><path d="M34,40a1,1,0,0,0,1,1h2a1,1,0,0,0,0-2H35A1,1,0,0,0,34,40Z"/><path d="M40,40a1,1,0,0,0,1,1h2a1,1,0,0,0,0-2H41A1,1,0,0,0,40,40Z"/><path d="M49,39H47a1,1,0,0,0,0,2h2a1,1,0,0,0,0-2Z"/><path d="M44,47H42a1,1,0,0,0,0,2h2a1,1,0,0,0,0-2Z"/></svg>
