<svg width="50" height="50" viewBox="0 0 50 50" fill="none" xmlns="http://www.w3.org/2000/svg">
<path d="M25 50C38.8071 50 50 38.8071 50 25C50 11.1929 38.8071 0 25 0C11.1929 0 0 11.1929 0 25C0 38.8071 11.1929 50 25 50Z" fill="#4D76A1"/>
<path fill-rule="evenodd" clip-rule="evenodd" d="M24.0558 35.9648H26.018C26.018 35.9648 26.6107 35.8997 26.9133 35.5735C27.1918 35.274 27.1829 34.7116 27.1829 34.7116C27.1829 34.7116 27.1446 32.0787 28.3666 31.691C29.5712 31.3091 31.118 34.2357 32.7575 35.3609C33.9973 36.2126 34.9394 36.0258 34.9394 36.0258L39.3233 35.9648C39.3233 35.9648 41.6166 35.8235 40.5292 34.0204C40.4401 33.8729 39.896 32.6866 37.2697 30.2489C34.521 27.6975 34.8891 28.1102 38.2003 23.697C40.2168 21.0093 41.023 19.3684 40.7712 18.6656C40.531 17.9962 39.0479 18.1731 39.0479 18.1731L34.1119 18.2039C34.1119 18.2039 33.746 18.154 33.4746 18.3162C33.2094 18.4753 33.0388 18.8461 33.0388 18.8461C33.0388 18.8461 32.2575 20.9259 31.2156 22.6947C29.0177 26.427 28.1388 26.624 27.7797 26.3922C26.9441 25.8521 27.1526 24.2224 27.1526 23.0646C27.1526 19.4477 27.7012 17.9396 26.0844 17.5492C25.5478 17.4196 25.153 17.334 23.7808 17.3202C22.0196 17.3019 20.529 17.3255 19.6849 17.7391C19.1234 18.014 18.6902 18.6268 18.954 18.662C19.2802 18.7057 20.0191 18.8612 20.4109 19.3947C20.9167 20.0827 20.8988 21.6283 20.8988 21.6283C20.8988 21.6283 21.1894 25.886 20.2201 26.415C19.5548 26.7777 18.6421 26.0371 16.6826 22.651C15.6785 20.9166 14.9205 18.9994 14.9205 18.9994C14.9205 18.9994 14.7743 18.6411 14.5136 18.4494C14.1972 18.2173 13.7551 18.1433 13.7551 18.1433L9.06464 18.174C9.06464 18.174 8.36051 18.1936 8.10204 18.4998C7.87208 18.7721 8.08377 19.3354 8.08377 19.3354C8.08377 19.3354 11.7559 27.9266 15.9138 32.2561C19.7263 36.2255 24.0558 35.9648 24.0558 35.9648Z" fill="white"/>
</svg>
